<?xml version="1.0" encoding="UTF-8" standalone="no" ?>
<!DOCTYPE svg PUBLIC "-//W3C//DTD SVG 1.1//EN" "http://www.w3.org/Graphics/SVG/1.1/DTD/svg11.dtd">
<svg xmlns="http://www.w3.org/2000/svg" xmlns:xlink="http://www.w3.org/1999/xlink" version="1.1" width="64" height="64" viewBox="0 0 64 64" xml:space="preserve">
<desc>Created with Fabric.js 4.6.0</desc>
<defs>
</defs>
<g transform="matrix(1 0 0 1 32.05 32.05)" id="0EskACuaEDyFU-b8I7DmW"  >
<path style="stroke: rgb(208,149,57); stroke-width: 0; stroke-dasharray: none; stroke-linecap: butt; stroke-dashoffset: 0; stroke-linejoin: miter; stroke-miterlimit: 4; fill: rgb(80,80,80); fill-rule: nonzero; opacity: 1;" vector-effect="non-scaling-stroke"  transform=" translate(0, 0)" d="M -32 -32 L 32.00001 -32 L 32.00001 32.00001 L -32 32.00001 z" stroke-linecap="round" />
</g>
<g transform="matrix(1 0 0 1 32 32.77)" id="gq3fMXASwysuNgZ7OpNqE"  >
<g style="" vector-effect="non-scaling-stroke"   >
		<g transform="matrix(1.17 0 0 1.17 0 -2.4)" id="bw4wAcVbRyL7bQxiq0vTN"  >
<path style="stroke: rgb(1,249,215); stroke-width: 0; stroke-dasharray: none; stroke-linecap: butt; stroke-dashoffset: 0; stroke-linejoin: miter; stroke-miterlimit: 4; fill: rgb(255,255,255); fill-rule: nonzero; opacity: 1;" vector-effect="non-scaling-stroke"  transform=" translate(-22.67, -16.71)" d="M 22.66667 0 C 35.17867 0 45.33334 7.48658 45.33334 16.71111 C 45.33334 25.93564 35.17867 33.42222 22.66667 33.42222 C 10.15467 33.42222 0 25.935640000000003 0 16.71111 C 0 7.486580000000002 10.15467 0 22.66667 0 z" stroke-linecap="round" />
</g>
		<g transform="matrix(0.25 -0.08 0.08 0.25 -11.61 8.09)" id="ulZKtnrnvDtBytHykYHAA"  >
<path style="stroke: none; stroke-width: 1; stroke-dasharray: none; stroke-linecap: butt; stroke-dashoffset: 0; stroke-linejoin: miter; stroke-miterlimit: 4; fill: rgb(255,255,255); fill-rule: nonzero; opacity: 1;" vector-effect="non-scaling-stroke"  transform=" translate(-40, -40)" d="M 60 40 L 80 80 L 40 80 L 0 80 L 20 40 L 40 0 L 60 40 z" stroke-linecap="round" />
</g>
		<g transform="matrix(1.17 0 0 1.17 -8.64 -5.77)" id="tE_vh5e0IljDgLvIKrZpt"  >
<path style="stroke: rgb(9,177,253); stroke-width: 0; stroke-dasharray: none; stroke-linecap: butt; stroke-dashoffset: 0; stroke-linejoin: miter; stroke-miterlimit: 4; fill: rgb(80,80,80); fill-rule: nonzero; opacity: 1;" vector-effect="non-scaling-stroke"  transform=" translate(-2.54, -2.54)" d="M 2.54054 0 C 3.94292 0 5.08108 1.13816 5.08108 2.54054 C 5.08108 3.94292 3.94292 5.08108 2.54054 5.08108 C 1.13816 5.08108 0 3.94292 0 2.54054 C 0 1.13816 1.13816 0 2.54054 0 z" stroke-linecap="round" />
</g>
		<g transform="matrix(1.17 0 0 1.17 8.88 -5.77)" id="otLwq810bdNuRjR2MwTh4"  >
<path style="stroke: rgb(9,177,253); stroke-width: 0; stroke-dasharray: none; stroke-linecap: butt; stroke-dashoffset: 0; stroke-linejoin: miter; stroke-miterlimit: 4; fill: rgb(80,80,80); fill-rule: nonzero; opacity: 1;" vector-effect="non-scaling-stroke"  transform=" translate(-2.54, -2.54)" d="M 2.54054 0 C 3.94292 0 5.08108 1.13816 5.08108 2.54054 C 5.08108 3.94292 3.94292 5.08108 2.54054 5.08108 C 1.13816 5.08108 0 3.94292 0 2.54054 C 0 1.13816 1.13816 0 2.54054 0 z" stroke-linecap="round" />
</g>
</g>
</g>
</svg>